<svg width="19" height="22" viewBox="0 0 19 22" fill="none" xmlns="http://www.w3.org/2000/svg">
<path d="M4.31818 10.1538H14.6818C14.9109 10.1538 15.1305 10.0647 15.2925 9.90601C15.4545 9.74733 15.5455 9.53211 15.5455 9.30769V4.23077C15.5455 4.00636 15.4545 3.79113 15.2925 3.63245C15.1305 3.47376 14.9109 3.38462 14.6818 3.38462H4.31818C4.08913 3.38462 3.86946 3.47376 3.7075 3.63245C3.54554 3.79113 3.45455 4.00636 3.45455 4.23077V9.30769C3.45455 9.53211 3.54554 9.74733 3.7075 9.90601C3.86946 10.0647 4.08913 10.1538 4.31818 10.1538ZM5.18182 5.07692H13.8182V8.46154H5.18182V5.07692ZM17.2727 0H1.72727C1.26917 0 0.829833 0.178296 0.505906 0.495665C0.18198 0.813035 0 1.24348 0 1.69231V20.3077C0 20.7565 0.18198 21.187 0.505906 21.5043C0.829833 21.8217 1.26917 22 1.72727 22H17.2727C17.7308 22 18.1702 21.8217 18.4941 21.5043C18.818 21.187 19 20.7565 19 20.3077V1.69231C19 1.24348 18.818 0.813035 18.4941 0.495665C18.1702 0.178296 17.7308 0 17.2727 0ZM17.2727 20.3077H1.72727V1.69231H17.2727V20.3077ZM10.7955 13.1154C10.7955 13.3664 10.7195 13.6118 10.5771 13.8205C10.4348 14.0293 10.2325 14.1919 9.99575 14.288C9.75904 14.3841 9.49856 14.4092 9.24727 14.3602C8.99598 14.3113 8.76515 14.1904 8.58397 14.0129C8.4028 13.8354 8.27942 13.6092 8.22944 13.363C8.17945 13.1168 8.20511 12.8616 8.30316 12.6297C8.40121 12.3977 8.56725 12.1995 8.78028 12.0601C8.99332 11.9206 9.24378 11.8462 9.5 11.8462C9.84358 11.8462 10.1731 11.9799 10.416 12.2179C10.659 12.4559 10.7955 12.7788 10.7955 13.1154ZM10.7955 17.3462C10.7955 17.5972 10.7195 17.8426 10.5771 18.0513C10.4348 18.26 10.2325 18.4227 9.99575 18.5188C9.75904 18.6148 9.49856 18.64 9.24727 18.591C8.99598 18.542 8.76515 18.4211 8.58397 18.2436C8.4028 18.0661 8.27942 17.84 8.22944 17.5938C8.17945 17.3476 8.20511 17.0924 8.30316 16.8604C8.40121 16.6285 8.56725 16.4303 8.78028 16.2908C8.99332 16.1514 9.24378 16.0769 9.5 16.0769C9.84358 16.0769 10.1731 16.2106 10.416 16.4487C10.659 16.6867 10.7955 17.0095 10.7955 17.3462ZM6.47727 13.1154C6.47727 13.3664 6.4013 13.6118 6.25895 13.8205C6.1166 14.0293 5.91428 14.1919 5.67757 14.288C5.44085 14.3841 5.18038 14.4092 4.92909 14.3602C4.67779 14.3113 4.44697 14.1904 4.26579 14.0129C4.08462 13.8354 3.96124 13.6092 3.91126 13.363C3.86127 13.1168 3.88692 12.8616 3.98497 12.6297C4.08302 12.3977 4.24907 12.1995 4.4621 12.0601C4.67514 11.9206 4.9256 11.8462 5.18182 11.8462C5.52539 11.8462 5.8549 11.9799 6.09784 12.2179C6.34079 12.4559 6.47727 12.7788 6.47727 13.1154ZM6.47727 17.3462C6.47727 17.5972 6.4013 17.8426 6.25895 18.0513C6.1166 18.26 5.91428 18.4227 5.67757 18.5188C5.44085 18.6148 5.18038 18.64 4.92909 18.591C4.67779 18.542 4.44697 18.4211 4.26579 18.2436C4.08462 18.0661 3.96124 17.84 3.91126 17.5938C3.86127 17.3476 3.88692 17.0924 3.98497 16.8604C4.08302 16.6285 4.24907 16.4303 4.4621 16.2908C4.67514 16.1514 4.9256 16.0769 5.18182 16.0769C5.52539 16.0769 5.8549 16.2106 6.09784 16.4487C6.34079 16.6867 6.47727 17.0095 6.47727 17.3462ZM15.1136 13.1154C15.1136 13.3664 15.0377 13.6118 14.8953 13.8205C14.753 14.0293 14.5506 14.1919 14.3139 14.288C14.0772 14.3841 13.8167 14.4092 13.5655 14.3602C13.3142 14.3113 13.0833 14.1904 12.9022 14.0129C12.721 13.8354 12.5976 13.6092 12.5476 13.363C12.4976 13.1168 12.5233 12.8616 12.6213 12.6297C12.7194 12.3977 12.8854 12.1995 13.0985 12.0601C13.3115 11.9206 13.562 11.8462 13.8182 11.8462C14.1618 11.8462 14.4913 11.9799 14.7342 12.2179C14.9772 12.4559 15.1136 12.7788 15.1136 13.1154ZM15.1136 17.3462C15.1136 17.5972 15.0377 17.8426 14.8953 18.0513C14.753 18.26 14.5506 18.4227 14.3139 18.5188C14.0772 18.6148 13.8167 18.64 13.5655 18.591C13.3142 18.542 13.0833 18.4211 12.9022 18.2436C12.721 18.0661 12.5976 17.84 12.5476 17.5938C12.4976 17.3476 12.5233 17.0924 12.6213 16.8604C12.7194 16.6285 12.8854 16.4303 13.0985 16.2908C13.3115 16.1514 13.562 16.0769 13.8182 16.0769C14.1618 16.0769 14.4913 16.2106 14.7342 16.4487C14.9772 16.6867 15.1136 17.0095 15.1136 17.3462Z" fill="#EEE"/>
</svg>
