<svg width="29" height="27" viewBox="0 0 29 27" fill="none" xmlns="http://www.w3.org/2000/svg">
<path d="M11.0727 17.2382H2.63636C1.93716 17.2382 1.26659 16.9588 0.772175 16.4615C0.277761 15.9641 1.90735e-06 15.2896 1.90735e-06 14.5862V11.7963C-0.000352859 11.4497 0.0668221 11.1064 0.197729 10.7858L4.2775 0.820803C4.37703 0.577852 4.54606 0.370127 4.76315 0.223988C4.98024 0.0778484 5.2356 -0.000112534 5.49682 0H27.6818C28.0314 0 28.3667 0.139704 28.6139 0.38838C28.8611 0.637056 29 0.974335 29 1.32602V14.5862C29 14.9379 28.8611 15.2752 28.6139 15.5238C28.3667 15.7725 28.0314 15.9122 27.6818 15.9122H23.0919C22.8809 15.9122 22.6729 15.9631 22.4855 16.0607C22.2981 16.1583 22.1367 16.2997 22.015 16.4731L14.8269 26.7193C14.736 26.8488 14.602 26.9413 14.4492 26.98C14.2964 27.0186 14.1348 27.001 13.9938 26.9301L11.6026 25.7274C10.9297 25.389 10.3921 24.8293 10.0792 24.1411C9.76624 23.4529 9.69681 22.6777 9.88241 21.9443L11.0727 17.2382ZM21.0909 13.8065V2.65203H6.38L2.63636 11.7963V14.5862H11.0727C11.4742 14.5863 11.8705 14.6786 12.2311 14.8561C12.5918 15.0336 12.9073 15.2917 13.1538 15.6106C13.4002 15.9294 13.571 16.3007 13.653 16.6961C13.7351 17.0915 13.7263 17.5005 13.6274 17.892L12.437 22.5967C12.3998 22.7434 12.4136 22.8986 12.4762 23.0363C12.5388 23.1741 12.6464 23.2861 12.7811 23.3538L13.6524 23.7914L19.861 14.9442C20.1906 14.4748 20.6124 14.0903 21.0909 13.8065ZM23.7273 13.2602H26.3636V2.65203H23.7273V13.2602Z" fill="#21212F"/>
</svg>
