<svg width="29" height="27" viewBox="0 0 29 27" fill="none" xmlns="http://www.w3.org/2000/svg">
<path d="M17.9273 9.76177H26.3636C27.0628 9.76177 27.7334 10.0412 28.2278 10.5385C28.7222 11.0359 29 11.7104 29 12.4138V15.2037C29.0004 15.5503 28.9332 15.8936 28.8023 16.2142L24.7225 26.1792C24.623 26.4221 24.4539 26.6299 24.2368 26.776C24.0198 26.9222 23.7644 27.0001 23.5032 27H1.31818C0.968578 27 0.633293 26.8603 0.386086 26.6116C0.138879 26.3629 0 26.0257 0 25.674V12.4138C0 12.0621 0.138879 11.7248 0.386086 11.4762C0.633293 11.2275 0.968578 11.0878 1.31818 11.0878H5.90809C6.11913 11.0878 6.32709 11.0369 6.5145 10.9393C6.70191 10.8417 6.86328 10.7003 6.98504 10.5269L14.1731 0.280745C14.264 0.15121 14.398 0.0587169 14.5508 0.0200367C14.7036 -0.0186436 14.8652 -0.000950546 15.0062 0.0699078L17.3974 1.27261C18.0703 1.61096 18.6079 2.17074 18.9208 2.85894C19.2338 3.54715 19.3032 4.32234 19.1176 5.05573L17.9273 9.76177ZM7.90909 13.1935V24.348H22.62L26.3636 15.2037V12.4138H17.9273C17.5258 12.4137 17.1295 12.3214 16.7689 12.1439C16.4082 11.9664 16.0927 11.7083 15.8462 11.3894C15.5998 11.0706 15.429 10.6993 15.347 10.3039C15.2649 9.9085 15.2737 9.49949 15.3726 9.10804L16.563 4.40333C16.6002 4.25658 16.5864 4.10142 16.5238 3.96366C16.4612 3.82591 16.3536 3.71387 16.2189 3.64618L15.3476 3.20859L9.13895 12.0558C8.80941 12.5252 8.38759 12.9097 7.90909 13.1935ZM5.27273 13.7398H2.63636V24.348H5.27273V13.7398Z" fill="#21212F"/>
</svg>
